{
    "asset" : {
        "generator" : "Khronos glTF Blender I/O v3.4.50",
        "version" : "2.0"
    },
    "scene" : 0,
    "scenes" : [
        {
            "name" : "Scene",
            "nodes" : [
                0
            ]
        }
    ],
    "nodes" : [
        {
            "mesh" : 0,
            "name" : "smk21-kas225-bruges-madonna.001"
        }
    ],
    "materials" : [
        {
            "doubleSided" : true,
            "name" : "Material.002",
            "normalTexture" : {
                "index" : 0
            },
            "pbrMetallicRoughness" : {
                "baseColorTexture" : {
                    "index" : 1
                },
                "metallicFactor" : 0,
                "roughnessFactor" : 0.8409091234207153
            }
        }
    ],
    "meshes" : [
        {
            "name" : "smk21-kas225-bruges-madonna.002",
            "primitives" : [
                {
                    "attributes" : {
                        "POSITION" : 0,
                        "TEXCOORD_0" : 1,
                        "NORMAL" : 2
                    },
                    "indices" : 3,
                    "material" : 0
                }
            ]
        }
    ],
    "textures" : [
        {
            "sampler" : 0,
            "source" : 0
        },
        {
            "sampler" : 0,
            "source" : 1
        }
    ],
    "images" : [
        {
            "mimeType" : "image/png",
            "name" : "Madonna_N",
            "uri" : "MadonnaTextures/Madonna_N.png"
        },
        {
            "mimeType" : "image/png",
            "name" : "Madonna_D",
            "uri" : "MadonnaTextures/Madonna_D.png"
        }
    ],
    "accessors" : [
        {
            "bufferView" : 0,
            "componentType" : 5126,
            "count" : 44949,
            "max" : [
                0.8647264838218689,
                1.9880406856536865,
                -0.002904553897678852
            ],
            "min" : [
                0.0012829499319195747,
                6.986362859606743e-05,
                -0.9923491477966309
            ],
            "type" : "VEC3"
        },
        {
            "bufferView" : 1,
            "componentType" : 5126,
            "count" : 44949,
            "type" : "VEC2"
        },
        {
            "bufferView" : 2,
            "componentType" : 5126,
            "count" : 44949,
            "type" : "VEC3"
        },
        {
            "bufferView" : 3,
            "componentType" : 5123,
            "count" : 205944,
            "type" : "SCALAR"
        }
    ],
    "bufferViews" : [
        {
            "buffer" : 0,
            "byteLength" : 539388,
            "byteOffset" : 0,
            "target" : 34962
        },
        {
            "buffer" : 0,
            "byteLength" : 359592,
            "byteOffset" : 539388,
            "target" : 34962
        },
        {
            "buffer" : 0,
            "byteLength" : 539388,
            "byteOffset" : 898980,
            "target" : 34962
        },
        {
            "buffer" : 0,
            "byteLength" : 411888,
            "byteOffset" : 1438368,
            "target" : 34963
        }
    ],
    "samplers" : [
        {
            "magFilter" : 9729,
            "minFilter" : 9987
        }
    ],
    "buffers" : [
        {
            "byteLength" : 1850256,
            "uri" : "Madonna.bin"
        }
    ]
}
